<svg width="32" height="32" fill="none" xmlns="http://www.w3.org/2000/svg"><g clip-path="url(#clip0_0_4)" fill-rule="evenodd" clip-rule="evenodd" fill="#3699FF"><path opacity=".3" d="M7.5 25h17a1.5 1.5 0 001.5-1.5v-11a1.5 1.5 0 00-1.5-1.5H14l-2.56-2.56A1.5 1.5 0 0010.378 8H7.5A1.5 1.5 0 006 9.5v14A1.5 1.5 0 007.5 25z"/><path d="M15 17v-2a1 1 0 112 0v2h2a1 1 0 110 2h-2v2a1 1 0 11-2 0v-2h-2a1 1 0 110-2h2z"/></g><defs><clipPath id="clip0_0_4"><path fill="#fff" transform="translate(4 4)" d="M0 0h24v24H0z"/></clipPath></defs></svg>