<svg width="54" height="36" fill="none" xmlns="http://www.w3.org/2000/svg"><rect x=".5" y=".5" width="53" height="35" rx="3.5" fill="#F8F8F9" stroke="#D8DCEB"/><path d="M45.083 27.083a1.766 1.766 0 01-2.5 0L31.75 16.249a1.765 1.765 0 010-2.5 1.766 1.766 0 012.5 0l10.833 10.834a1.765 1.765 0 010 2.5zm-12.091-9.591l2.5-2.5" stroke="#3699FF" stroke-width="1.5" stroke-linecap="round" stroke-linejoin="round"/><path d="M40.917 12.033l-1.25-.367.367 1.25-.367 1.25 1.25-.367 1.25.367-.367-1.25.367-1.25-1.25.367zm3.333 5L43 16.666l.367 1.25-.367 1.25 1.25-.367 1.25.367-.367-1.25.367-1.25-1.25.367zM31.75 21.2l-1.25-.366.367 1.25-.367 1.25 1.25-.367 1.25.367-.367-1.25.367-1.25-1.25.367z" stroke="#3699FF" stroke-linecap="round" stroke-linejoin="round"/><path d="M0 4a4 4 0 014-4h46a4 4 0 014 4v2H0V4z" fill="#D8DCEB"/><circle cx="4" cy="3" r="1" fill="#FF6161"/><circle cx="7" cy="3" r="1" fill="#FFB83C"/><circle cx="10" cy="3" r="1" fill="#00C10D"/><path fill="#BEDBFB" d="M6 11h17v4H6zm0 7h17v4H6zm0 7h17v4H6z"/></svg>