<svg width="13" height="12" fill="none" xmlns="http://www.w3.org/2000/svg"><path d="M12.96 6.058c0 .214-.08.4-.24.56l-4.51 4.498a.756.756 0 01-.54.233.727.727 0 01-.526-.205.696.696 0 01-.205-.513c0-.105.018-.203.054-.294a.798.798 0 01.164-.24l1.532-1.544 2.55-2.324.239.437-2.373.137H.8a.763.763 0 01-.554-.205.745.745 0 01-.205-.54.73.73 0 01.205-.54.749.749 0 01.554-.212h8.305l2.373.143-.24.445-2.55-2.332-1.53-1.551a.827.827 0 01-.165-.233.803.803 0 01-.054-.3c0-.206.068-.376.205-.513A.727.727 0 017.669.76c.1 0 .196.02.287.061a.88.88 0 01.26.185l4.505 4.491c.16.16.239.346.239.56z" fill="#7D7D7D"/></svg>