<svg width="32" height="32" fill="none" xmlns="http://www.w3.org/2000/svg"><rect width="32" height="32" rx="6" fill="#E0FDFF"/><g clip-path="url(#clip0_94_199)" fill="#04A099"><path opacity=".3" d="M19 9.5a1.5 1.5 0 00-3 0v10a1.5 1.5 0 003 0v-10zm-5 5a1.5 1.5 0 00-3 0v5a1.5 1.5 0 003 0v-5z"/><path d="M9 23h15a1 1 0 110 2H8a1 1 0 01-1-1V8a1 1 0 012 0v15z"/><path opacity=".3" d="M24 16.5a1.5 1.5 0 00-3 0v3a1.5 1.5 0 003 0v-3z"/></g><defs><clipPath id="clip0_94_199"><path fill="#fff" transform="translate(4 4)" d="M0 0h24v24H0z"/></clipPath></defs></svg>