<svg width="26" height="26" fill="none" xmlns="http://www.w3.org/2000/svg"><path fill-rule="evenodd" clip-rule="evenodd" d="M19.187 7.873a.75.75 0 10-1.06-1.06L13 11.938 7.873 6.812a.75.75 0 00-1.06 1.06L11.939 13l-5.126 5.127a.75.75 0 001.06 1.06L13 14.06l5.127 5.127a.75.75 0 001.06-1.061l-5.126-5.127 5.126-5.126z" fill="#1E1E1E"/><path fill-rule="evenodd" clip-rule="evenodd" d="M19.187 7.873a.75.75 0 10-1.06-1.06L13 11.938 7.873 6.812a.75.75 0 00-1.06 1.06L11.939 13l-5.126 5.127a.75.75 0 001.06 1.06L13 14.06l5.127 5.127a.75.75 0 001.06-1.061l-5.126-5.127 5.126-5.126z" fill="#000" fill-opacity=".2"/><path fill-rule="evenodd" clip-rule="evenodd" d="M19.187 7.873a.75.75 0 10-1.06-1.06L13 11.938 7.873 6.812a.75.75 0 00-1.06 1.06L11.939 13l-5.126 5.127a.75.75 0 001.06 1.06L13 14.06l5.127 5.127a.75.75 0 001.06-1.061l-5.126-5.127 5.126-5.126z" fill="#000" fill-opacity=".2"/></svg>