<svg width="24" height="24" fill="none" xmlns="http://www.w3.org/2000/svg"><mask id="a" style="mask-type:alpha" maskUnits="userSpaceOnUse" x="0" y="0" width="24" height="24"><rect width="24" height="24" rx="4" fill="#D8DCEB"/></mask><g mask="url(#a)"><rect width="24" height="24" rx="4" fill="#D8DCEB"/><path d="M3 4h21v10H3V4z" fill="#EEEFF4"/><g filter="url(#filter0_d_255_2571)"><path d="M3 4h15v20H3V4z" fill="#fff"/></g><path fill-rule="evenodd" clip-rule="evenodd" d="M20 8h1v1h-1V8zm2 1h-1v1h1V9zm0 0V8h1v1h-1z" fill="#3699FF"/><path fill="#D8DCEB" d="M6 8h9v2H6zm0 4h9v2H6zm0 4h9v2H6zm0 4h9v2H6z"/></g><defs><filter id="filter0_d_255_2571" x="-1" y="2" width="23" height="28" filterUnits="userSpaceOnUse" color-interpolation-filters="sRGB"><feFlood flood-opacity="0" result="BackgroundImageFix"/><feColorMatrix in="SourceAlpha" values="0 0 0 0 0 0 0 0 0 0 0 0 0 0 0 0 0 0 127 0" result="hardAlpha"/><feOffset dy="2"/><feGaussianBlur stdDeviation="2"/><feComposite in2="hardAlpha" operator="out"/><feColorMatrix values="0 0 0 0 0 0 0 0 0 0 0 0 0 0 0 0 0 0 0.1 0"/><feBlend in2="BackgroundImageFix" result="effect1_dropShadow_255_2571"/><feBlend in="SourceGraphic" in2="effect1_dropShadow_255_2571" result="shape"/></filter></defs></svg>