<svg width="24" height="24" fill="none" xmlns="http://www.w3.org/2000/svg"><path opacity=".3" fill-rule="evenodd" clip-rule="evenodd" d="M10.586 12l-2.122 2.12a1 1 0 001.415 1.415L12 13.414l.707.707a2 2 0 010 2.828L9.88 19.778a2 2 0 01-2.829 0l-2.828-2.829a2 2 0 010-2.828l2.828-2.829a2 2 0 012.829 0l.707.708z" fill="#3699FF"/><path fill-rule="evenodd" clip-rule="evenodd" d="M13.414 12l2.122-2.12a1 1 0 00-1.415-1.415l-2.12 2.121-.708-.707a2 2 0 010-2.828l2.829-2.829a2 2 0 012.828 0l2.828 2.829a2 2 0 010 2.828l-2.828 2.829a2 2 0 01-2.829 0L13.414 12z" fill="#3699FF"/></svg>