<svg width="24" height="24" fill="none" xmlns="http://www.w3.org/2000/svg"><path fill-rule="evenodd" clip-rule="evenodd" d="M22 17v4a2 2 0 01-2 2H4a2 2 0 01-2-2v-4h4.28l.543 1.633A2 2 0 008.721 20h6.661a2 2 0 001.789-1.106L18.118 17H22z" fill="#3699FF"/><path opacity=".3" fill-rule="evenodd" clip-rule="evenodd" d="M2.563 15l3.364-5.98A2 2 0 017.67 8h8.66a2 2 0 011.744 1.02L21.436 15h-3.319a2 2 0 00-1.789 1.106L15.382 18H8.721l-.544-1.633A2 2 0 006.279 15H2.563z" fill="#3699FF"/><path d="M9.032 4.492h1.956V6.5a.5.5 0 00.5.5h1.024a.5.5 0 00.5-.5V4.492h1.956a.5.5 0 00.382-.823L12.382.164a.5.5 0 00-.764 0L8.65 3.669a.5.5 0 00.382.823z" fill="#3699FF"/></svg>