<svg width="54" height="36" fill="none" xmlns="http://www.w3.org/2000/svg"><rect x=".5" y=".5" width="53" height="35" rx="3.5" fill="#F8F8F9" stroke="#D8DCEB"/><path d="M0 4a4 4 0 014-4h46a4 4 0 014 4v2H0V4z" fill="#D8DCEB"/><circle cx="4" cy="3" r="1" fill="#FF6161"/><circle cx="7" cy="3" r="1" fill="#FFB83C"/><circle cx="10" cy="3" r="1" fill="#00C10D"/><path fill="#BEDBFB" d="M9 11h35v4H9z"/><path d="M15.7 19.98V27h-1.71v-2.89h-2.66V27H9.62v-7.02h1.71v2.75h2.66v-2.75h1.71zm6.285 0v1.37h-1.86V27h-1.71v-5.65h-1.86v-1.37h5.43zm8.808 0V27h-1.71v-4.21L27.513 27h-1.38l-1.58-4.22V27h-1.71v-7.02h2.02l1.97 4.86 1.95-4.86h2.01zm2.94 5.7h2.24V27h-3.95v-7.02h1.71v5.7z" fill="#3699FF"/></svg>