<svg width="24" height="24" fill="none" xmlns="http://www.w3.org/2000/svg"><path d="M12.934 16.072l6.426-5.116.158-.125a1.5 1.5 0 00.003-2.35l-6.587-5.238a1.5 1.5 0 00-1.868 0L4.475 8.485a1.5 1.5 0 00-.001 2.347l.156.124 6.436 5.117a1.5 1.5 0 001.868 0z" fill="#56A627"/><path opacity=".3" fill-rule="evenodd" clip-rule="evenodd" d="M11.056 18.67l-5.72-4.547a.903.903 0 00-1.276.154.91.91 0 00.162 1.276l.004.003 6.861 5.247a1.5 1.5 0 001.823 0l6.858-5.243a.915.915 0 00.171-1.283l-.004-.005a.91.91 0 00-1.278-.161l-.008.006-5.726 4.554a1.5 1.5 0 01-1.867 0z" fill="#56A627"/></svg>