<svg width="32" height="32" fill="none" xmlns="http://www.w3.org/2000/svg"><rect width="32" height="32" rx="4" fill="#DCF0D0"/><g clip-path="url(#clip0_94_174)" fill="#56A627"><path d="M16.934 20.072l6.426-5.116.158-.125a1.5 1.5 0 00.003-2.35l-6.587-5.238a1.5 1.5 0 00-1.868 0l-6.591 5.242a1.5 1.5 0 00-.001 2.347l.156.124 6.436 5.117a1.5 1.5 0 001.868 0z"/><path opacity=".3" fill-rule="evenodd" clip-rule="evenodd" d="M15.056 22.67l-5.72-4.547a.903.903 0 00-1.276.154.91.91 0 00.162 1.275l.004.004 6.861 5.247a1.5 1.5 0 001.823 0l6.858-5.243a.915.915 0 00.171-1.283l-.004-.005a.91.91 0 00-1.278-.161l-.008.006-5.726 4.554a1.5 1.5 0 01-1.867 0z"/></g><defs><clipPath id="clip0_94_174"><path fill="#fff" transform="translate(4 4)" d="M0 0h24v24H0z"/></clipPath></defs></svg>