<svg width="16" height="15" fill="none" xmlns="http://www.w3.org/2000/svg"><path d="M8.082 4.693c.438.078.802.192 1.094.342.291.146.544.328.759.547.556.551.925 1.16 1.107 1.825.182.661.18 1.322-.007 1.983-.182.66-.547 1.264-1.094 1.811l-2.337 2.345c-.543.542-1.144.905-1.805 1.087a3.646 3.646 0 01-1.99.007c-.66-.183-1.269-.552-1.825-1.108-.551-.551-.918-1.157-1.1-1.818a3.686 3.686 0 010-1.99c.187-.66.551-1.264 1.094-1.81l2.01-2.004a2.772 2.772 0 00-.021.704c.027.242.089.47.184.684l-1.34 1.34c-.396.396-.66.834-.792 1.312a2.66 2.66 0 000 1.443c.132.478.396.918.793 1.319.396.396.834.658 1.312.786.483.132.964.132 1.442 0 .479-.132.916-.396 1.313-.793l2.235-2.228c.397-.397.659-.834.786-1.313a2.647 2.647 0 000-1.435c-.132-.484-.396-.926-.793-1.327a2.51 2.51 0 00-.8-.533c-.305-.132-.683-.216-1.134-.253l.909-.923zm-.17 5.633a4.034 4.034 0 01-1.095-.335 2.934 2.934 0 01-.758-.553c-.556-.552-.926-1.158-1.108-1.819a3.686 3.686 0 010-1.99c.187-.66.554-1.264 1.1-1.81L8.384 1.48C8.93.934 9.533.57 10.194.387A3.618 3.618 0 0112.177.38c.665.182 1.276.551 1.832 1.107.551.552.918 1.16 1.1 1.825.183.661.18 1.322-.007 1.983-.182.66-.544 1.265-1.086 1.811l-2.01 2.003c.036-.223.04-.455.014-.697a2.235 2.235 0 00-.178-.69l1.34-1.34c.396-.397.66-.834.793-1.313a2.648 2.648 0 000-1.435c-.133-.483-.397-.923-.793-1.32-.401-.4-.841-.665-1.32-.793a2.648 2.648 0 00-1.435 0c-.479.133-.919.397-1.32.793L6.88 4.543c-.397.396-.66.834-.793 1.312-.132.479-.132.96 0 1.443.132.478.399.918.8 1.32.223.222.487.4.793.532.31.133.69.217 1.141.253l-.909.923z" fill="#7D7D7D"/></svg>