<svg width="17" height="15" fill="none" xmlns="http://www.w3.org/2000/svg"><path d="M2.143 11.324c-.716 0-1.254-.175-1.614-.526-.355-.356-.533-.887-.533-1.593V2.76c0-.707.178-1.235.533-1.586C.89.817 1.427.64 2.143.64h9.337c.711 0 1.247.177 1.607.533.36.355.54.884.54 1.586v1.545h-1.1V2.82c0-.355-.094-.624-.28-.806-.188-.183-.45-.274-.787-.274H2.156c-.342 0-.604.091-.786.274-.182.182-.273.45-.273.806v6.33c0 .356.09.625.273.807.182.178.444.267.786.267h1.415v1.1H2.143zM5.52 14.49c-.716 0-1.254-.178-1.614-.533-.355-.35-.533-.88-.533-1.586V5.924c0-.707.178-1.235.533-1.586.36-.356.898-.533 1.614-.533h9.337c.711 0 1.247.177 1.607.533.36.355.54.884.54 1.586v6.446c0 .707-.18 1.235-.54 1.586-.36.356-.896.533-1.607.533H5.52zM4.474 7.257v5.058c0 .356.09.623.273.8.182.182.444.274.786.274h9.304c.337 0 .6-.091.786-.274.187-.178.28-.444.28-.8V7.257H4.473zM5.54 6.143a.576.576 0 00.43-.185.601.601 0 000-.854.576.576 0 00-.43-.185.576.576 0 00-.43.185.601.601 0 000 .854.576.576 0 00.43.185zm1.962 0a.576.576 0 00.43-.185.601.601 0 000-.854.576.576 0 00-.43-.185.576.576 0 00-.43.185.601.601 0 000 .854.576.576 0 00.43.185zm1.962 0a.576.576 0 00.43-.185.602.602 0 000-.854.576.576 0 00-.43-.185.576.576 0 00-.43.185.601.601 0 000 .854.576.576 0 00.43.185z" fill="#7D7D7D"/></svg>