<svg width="54" height="36" fill="none" xmlns="http://www.w3.org/2000/svg"><rect width="54" height="36" rx="4" fill="#BEDBFB"/><mask id="a" fill="#fff"><path d="M17 4h29v32H17V4z"/></mask><path d="M17 4h29v32H17V4z" fill="#fff"/><path d="M46 4h1V3h-1v1zM17 5h29V3H17v2zm28-1v32h2V4h-2z" fill="#BEDBFB" mask="url(#a)"/><mask id="b" fill="#fff"><path d="M13 8h29v28H13V8z"/></mask><path d="M13 8h29v28H13V8z" fill="#fff"/><path d="M42 8h1V7h-1v1zM13 9h29V7H13v2zm28-1v28h2V8h-2z" fill="#BEDBFB" mask="url(#b)"/><mask id="c" fill="#fff"><path d="M8 12h30v24H8V12z"/></mask><path d="M8 12h30v24H8V12z" fill="#fff"/><path d="M38 12h1v-1h-1v1zM8 13h30v-2H8v2zm29-1v24h2V12h-2z" fill="#BEDBFB" mask="url(#c)"/><path fill="#BEDBFB" d="M13 17h20v3H13zm0 6h20v3H13zm0 6h20v3H13z"/></svg>