<svg width="54" height="36" fill="none" xmlns="http://www.w3.org/2000/svg"><rect x=".5" y=".5" width="53" height="35" rx="3.5" fill="#F8F8F9" stroke="#D8DCEB"/><path d="M0 4a4 4 0 014-4h46a4 4 0 014 4v2H0V4z" fill="#D8DCEB"/><circle cx="4" cy="3" r="1" fill="#FF6161"/><circle cx="7" cy="3" r="1" fill="#FFB83C"/><circle cx="10" cy="3" r="1" fill="#00C10D"/><path fill="#BEDBFB" d="M9 11h35v4H9z"/><path d="M14.97 22.24c0 .407-.093.78-.28 1.12-.187.333-.473.603-.86.81-.387.207-.867.31-1.44.31h-1.06V27H9.62v-7.02h2.77c.56 0 1.033.097 1.42.29.387.193.677.46.87.8.193.34.29.73.29 1.17zm-2.71.88c.327 0 .57-.077.73-.23.16-.153.24-.37.24-.65s-.08-.497-.24-.65c-.16-.153-.403-.23-.73-.23h-.93v1.76h.93zm6.23-3.14c.74 0 1.387.147 1.94.44.554.293.98.707 1.28 1.24.307.527.46 1.137.46 1.83 0 .687-.153 1.297-.46 1.83-.3.533-.73.947-1.29 1.24-.553.293-1.196.44-1.93.44h-2.63v-7.02h2.63zm-.11 5.54c.647 0 1.15-.177 1.51-.53.36-.353.54-.853.54-1.5s-.18-1.15-.54-1.51c-.36-.36-.863-.54-1.51-.54h-.81v4.08h.81zm9.316-5.54v1.37h-2.86v1.48h2.14v1.33h-2.14V27h-1.71v-7.02h4.57z" fill="#3699FF"/></svg>