<svg width="24" height="24" fill="none" xmlns="http://www.w3.org/2000/svg"><path opacity=".3" d="M12 22c5.523 0 10-4.477 10-10S17.523 2 12 2 2 6.477 2 12s4.477 10 10 10z" fill="#7D7D7D"/><path fill-rule="evenodd" clip-rule="evenodd" d="M12 16a1 1 0 110 2 1 1 0 010-2zm-1.41-1.132v-1.66h1.26c1.597 0 2.752-1.217 2.752-2.813S13.447 7.58 11.85 7.58c-1.617 0-2.73 1.218-2.73 2.814H7.336c0-2.52 1.974-4.473 4.515-4.473 2.54 0 4.536 1.953 4.536 4.473 0 2.52-1.995 4.473-4.536 4.473h-1.26z" fill="#7D7D7D"/></svg>