<svg width="24" height="24" fill="none" xmlns="http://www.w3.org/2000/svg"><path opacity=".3" d="M8.296 4.138l-7.14 6.478a.75.75 0 00-.006 1.105l7.14 6.613a.75.75 0 001.26-.55V4.694a.75.75 0 00-1.254-.556z" fill="#3699FF"/><path d="M23.295 17.791c0-.82.176-4.057-2.378-6.626C19.198 9.437 16.627 9.137 13.55 9V4.693a.75.75 0 00-1.254-.555l-7.14 6.478a.75.75 0 00-.006 1.105l7.14 6.613a.75.75 0 001.26-.55V13.5c1.953.054 3.344.178 4.608.58 1.82.58 3.227 2.222 4.22 4.929a.75.75 0 00.704.491h.218c0-.493-.005-1.274-.005-1.709z" fill="#3699FF"/></svg>