<svg width="16" height="15" fill="none" xmlns="http://www.w3.org/2000/svg"><path d="M2.914 11.57c-.715 0-1.253-.175-1.613-.526-.356-.356-.533-.886-.533-1.593V2.533c0-.706.177-1.235.533-1.586.36-.355.898-.533 1.613-.533h6.863c.711 0 1.245.178 1.6.533.36.356.54.884.54 1.586v1.559h-1.1V2.595c0-.356-.094-.625-.28-.807-.183-.182-.443-.273-.78-.273h-6.83c-.341 0-.603.09-.785.273-.183.182-.274.451-.274.807V9.39c0 .355.091.624.274.806.182.183.444.274.786.274h1.716v1.1h-1.73zm3.315 3.165c-.715 0-1.253-.177-1.613-.533-.355-.35-.533-.88-.533-1.586V5.698c0-.706.178-1.235.533-1.586.36-.355.898-.533 1.613-.533h6.864c.71 0 1.244.178 1.6.533.36.356.54.884.54 1.586v6.918c0 .702-.18 1.23-.54 1.586-.356.356-.89.533-1.6.533H6.229zm.014-1.1h6.83c.336 0 .596-.091.779-.274.186-.182.28-.45.28-.806V5.76c0-.356-.094-.625-.28-.807-.183-.182-.443-.273-.78-.273H6.243c-.342 0-.604.09-.786.273-.182.182-.273.451-.273.807v6.795c0 .355.09.624.273.806.182.183.444.274.786.274z" fill="#7D7D7D"/></svg>