<svg width="14" height="16" fill="none" xmlns="http://www.w3.org/2000/svg"><path d="M4.977 13.37a.43.43 0 01-.308-.11.406.406 0 01-.123-.293L4.34 5.659a.356.356 0 01.11-.287.44.44 0 01.314-.116c.123 0 .223.036.3.11a.366.366 0 01.123.286l.212 7.315a.398.398 0 01-.116.294.43.43 0 01-.307.11zm2.023 0a.455.455 0 01-.314-.11.387.387 0 01-.123-.293V5.659c0-.118.04-.214.123-.287A.44.44 0 017 5.256c.132 0 .24.039.321.116a.366.366 0 01.123.287v7.308a.387.387 0 01-.123.294.465.465 0 01-.321.11zm2.03 0a.44.44 0 01-.314-.11.376.376 0 01-.11-.293l.206-7.308a.406.406 0 01.123-.294.421.421 0 01.3-.11c.133 0 .237.04.315.117a.356.356 0 01.11.287l-.206 7.308a.406.406 0 01-.123.294.42.42 0 01-.3.11zM4 3.472V1.94c0-.492.15-.88.451-1.162.306-.287.72-.43 1.244-.43h2.598c.524 0 .937.143 1.237.43.306.283.458.67.458 1.162v1.532H8.9V2.009a.605.605 0 00-.191-.465.68.68 0 00-.492-.178H5.77a.704.704 0 00-.5.178.616.616 0 00-.184.465v1.463H3.999zm-3.103.547a.517.517 0 01-.513-.52c0-.137.05-.255.15-.355a.498.498 0 01.363-.158H13.11c.137 0 .255.05.356.15a.522.522 0 010 .733.472.472 0 01-.356.15H.896zM3.869 15.57c-.492 0-.89-.146-1.196-.437-.3-.287-.463-.677-.486-1.17L1.703 3.89h1.073l.486 9.953c.009.2.08.367.212.499a.668.668 0 00.492.198h6.063c.2 0 .367-.066.5-.198a.709.709 0 00.211-.5l.458-9.952h1.1l-.478 10.069c-.023.492-.187.884-.492 1.176-.305.291-.702.437-1.19.437H3.87z" fill="#FF2D2D"/></svg>