<svg width="24" height="24" fill="none" xmlns="http://www.w3.org/2000/svg"><path opacity=".3" d="M5.857 2h7.88a1.5 1.5 0 01.968.355l4.764 4.029A1.5 1.5 0 0120 7.529v12.554c0 1.79-.02 1.917-1.857 1.917H5.857C4.02 22 4 21.874 4 20.083V3.917C4 2.127 4.02 2 5.857 2z" fill="#3699FF"/><path fill-rule="evenodd" clip-rule="evenodd" d="M8.951 13.815h1.957v2.008a.5.5 0 00.5.5h1.023a.5.5 0 00.5-.5v-2.008h1.956a.5.5 0 00.382-.823l-2.968-3.506a.5.5 0 00-.763 0L8.57 12.992a.5.5 0 00.381.823z" fill="#3699FF"/></svg>