<svg width="54" height="36" fill="none" xmlns="http://www.w3.org/2000/svg"><rect x=".5" y=".5" width="53" height="35" rx="3.5" fill="#F8F8F9" stroke="#D8DCEB"/><path d="M0 4a4 4 0 014-4h46a4 4 0 014 4v2H0V4z" fill="#D8DCEB"/><circle cx="4" cy="3" r="1" fill="#FF6161"/><circle cx="7" cy="3" r="1" fill="#FFB83C"/><circle cx="10" cy="3" r="1" fill="#00C10D"/><path d="M9.5 16a3.5 3.5 0 013.5-3.5h40.5v15H13A3.5 3.5 0 019.5 24v-8z" fill="#fff" stroke="#3699FF"/><path d="M16.88 18.52c.336 0 .635.072.896.216a1.5 1.5 0 01.624.64c.155.283.232.624.232 1.024V23h-.904v-2.464c0-.395-.099-.696-.296-.904-.197-.213-.467-.32-.808-.32s-.613.107-.816.32c-.197.208-.296.51-.296.904V23H14.6v-5.92h.912v2.024c.155-.187.35-.33.584-.432a2 2 0 01.784-.152zm3.98.816v2.44c0 .165.037.285.111.36.08.07.214.104.4.104h.56V23h-.72c-.41 0-.725-.096-.944-.288-.218-.192-.328-.504-.328-.936v-2.44h-.52v-.744h.52v-1.096h.92v1.096h1.072v.744H20.86zm2.976 0v2.44c0 .165.037.285.112.36.08.07.213.104.4.104h.56V23h-.72c-.41 0-.726-.096-.944-.288-.219-.192-.328-.504-.328-.936v-2.44h-.52v-.744h.52v-1.096h.92v1.096h1.072v.744h-1.072zm2.824-.096c.155-.203.366-.373.632-.512a1.93 1.93 0 01.904-.208c.384 0 .734.096 1.048.288.32.187.571.45.752.792.182.341.272.733.272 1.176 0 .443-.09.84-.272 1.192a2.057 2.057 0 01-.752.816 1.973 1.973 0 01-1.048.288 1.95 1.95 0 01-.896-.2 2.056 2.056 0 01-.64-.512v2.736h-.912v-6.504h.912v.648zm2.68 1.536c0-.304-.064-.565-.192-.784a1.221 1.221 0 00-.496-.504 1.316 1.316 0 00-1.312 0 1.348 1.348 0 00-.496.512 1.625 1.625 0 00-.184.792c0 .304.062.57.184.8.128.224.294.395.496.512a1.316 1.316 0 001.312 0c.208-.123.374-.299.496-.528.128-.23.192-.496.192-.8zm3.43 2.296a2.29 2.29 0 01-.936-.184 1.691 1.691 0 01-.648-.512 1.296 1.296 0 01-.256-.728h.944a.66.66 0 00.264.472c.166.123.371.184.616.184.256 0 .454-.048.592-.144a.455.455 0 00.216-.384c0-.165-.08-.288-.24-.368a4.27 4.27 0 00-.744-.264 7.23 7.23 0 01-.808-.264 1.45 1.45 0 01-.544-.392c-.149-.176-.224-.408-.224-.696 0-.235.07-.448.208-.64a1.38 1.38 0 01.592-.464c.262-.112.56-.168.896-.168.502 0 .904.128 1.208.384.31.25.475.595.496 1.032h-.912a.65.65 0 00-.24-.472c-.144-.117-.338-.176-.584-.176-.24 0-.424.045-.552.136a.421.421 0 00-.192.36.39.39 0 00.128.296c.086.08.19.144.312.192.123.043.304.099.544.168.32.085.582.173.784.264.208.085.387.213.536.384.15.17.227.397.232.68 0 .25-.069.475-.208.672a1.376 1.376 0 01-.592.464c-.25.112-.546.168-.888.168zm3.042-.016a.565.565 0 01-.416-.168.565.565 0 01-.168-.416c0-.165.056-.304.168-.416a.565.565 0 01.416-.168c.16 0 .296.056.408.168.112.112.168.25.168.416a.565.565 0 01-.168.416.555.555 0 01-.408.168zm0-3.36a.565.565 0 01-.416-.168.565.565 0 01-.168-.416c0-.165.056-.304.168-.416a.565.565 0 01.416-.168c.16 0 .296.056.408.168.112.112.168.25.168.416a.565.565 0 01-.168.416.555.555 0 01-.408.168zm4.553-4.248L38.189 24.4h-.896l2.168-8.952h.904zm4.11 0L42.297 24.4h-.896l2.168-8.952h.904z" fill="#AAB1CD"/></svg>