<svg width="32" height="32" fill="none" xmlns="http://www.w3.org/2000/svg"><rect width="32" height="32" rx="6" fill="#F6E8FF"/><g clip-path="url(#clip0_94_191)" fill="#8627C2"><path opacity=".3" d="M22 18a3 3 0 110-6 3 3 0 010 6zm-9-3a4 4 0 110-8 4 4 0 010 8z"/><path d="M21.601 19c3.407.038 6.188 1.76 6.398 5.4.008.147 0 .6-.543.6H23.6c0-2.25-.744-4.328-1.999-6zm-17.6 5.2c.387-4.773 4.26-7.2 8.982-7.2 4.788 0 8.722 2.293 9.015 7.2.012.195 0 .8-.751.8H4.727c-.25 0-.747-.54-.726-.8z"/></g><defs><clipPath id="clip0_94_191"><path fill="#fff" transform="translate(4 4)" d="M0 0h24v24H0z"/></clipPath></defs></svg>