<svg width="32" height="32" fill="none" xmlns="http://www.w3.org/2000/svg"><rect width="32" height="32" rx="6" fill="#E1F1FF"/><g clip-path="url(#clip0_94_183)" fill="#3699FF"><path fill-rule="evenodd" clip-rule="evenodd" d="M7 8h17a1 1 0 011 1v2a1 1 0 01-1 1H7a1 1 0 01-1-1V9a1 1 0 011-1zm0 6h10a1 1 0 011 1v2a1 1 0 01-1 1H7a1 1 0 01-1-1v-2a1 1 0 011-1zm0 6h10a1 1 0 011 1v2a1 1 0 01-1 1H7a1 1 0 01-1-1v-2a1 1 0 011-1z"/><path opacity=".3" d="M24 14h-3a1 1 0 00-1 1v8a1 1 0 001 1h3a1 1 0 001-1v-8a1 1 0 00-1-1z"/></g><defs><clipPath id="clip0_94_183"><path fill="#fff" transform="translate(4 4)" d="M0 0h24v24H0z"/></clipPath></defs></svg>