<svg width="563" height="772" fill="none" xmlns="http://www.w3.org/2000/svg"><g opacity=".2" filter="url(#filter0_d_1_135)"><path fill-rule="evenodd" clip-rule="evenodd" d="M152.607 94a12 12 0 00-8.744 3.782l-8.96 9.534H81c-6.627 0-12 5.372-12 12v44.444c0 6.628 5.373 12 12 12h108c.599 0 1.188-.044 1.763-.128H197a4 4 0 004-4V106c0-6.627-5.373-12-12-12h-36.393z" fill="#FFB151"/></g><g opacity=".2" filter="url(#filter1_d_1_135)"><path fill-rule="evenodd" clip-rule="evenodd" d="M523.607 0a12 12 0 00-8.744 3.782l-8.96 9.534H452c-6.627 0-12 5.372-12 12V69.76c0 6.628 5.373 12 12 12h108c.599 0 1.188-.044 1.763-.128H568a4 4 0 004-4V12c0-6.627-5.373-12-12-12h-36.393z" fill="#FFB151"/></g><g filter="url(#filter2_d_1_135)"><path d="M181 92.641C181 86.212 187.905 81 192.5 81h362.181c4.594 0 8.319 5.212 8.319 11.641V665H189.319c-4.594 0-8.319-5.212-8.319-11.641V92.641z" fill="#fff"/></g><path d="M181 75c0-6.627 5.373-12 12-12h370v38H181V75z" fill="#DCE0F2"/><circle cx="201" cy="84" r="6" fill="#FF6262"/><circle cx="218" cy="84" r="6" fill="#FFC64B"/><circle cx="234" cy="84" r="6" fill="#56CA2C"/><path d="M274 76a6 6 0 016-6h283v24H280a6 6 0 01-6-6V76z" fill="#EDF0FB"/><g filter="url(#filter3_d_1_135)"><path fill-rule="evenodd" clip-rule="evenodd" d="M140.638 354a12 12 0 00-8.744 3.782L113.832 377H12c-6.627 0-12 5.373-12 12v94.222c0 6.628 5.373 12 12 12h204c.79 0 1.563-.076 2.31-.222H224a4 4 0 004-4V366c0-6.627-5.373-12-12-12h-75.362z" fill="#FFB151"/></g><path fill="#fff" stroke="#DEE1F0" stroke-width="2" stroke-dasharray="4 4" d="M275 264h287v43H275zm0 102h287v43H275zm0 102h287v43H275zm0 102h287v43H275z"/><g filter="url(#filter4_d_1_135)"><path fill-rule="evenodd" clip-rule="evenodd" d="M444.638 582a12 12 0 00-8.744 3.782L417.832 605H316c-6.627 0-12 5.373-12 12v94.222c0 6.628 5.373 12 12 12h204c.79 0 1.563-.076 2.31-.222H528a4 4 0 004-4V594c0-6.627-5.373-12-12-12h-75.362z" fill="#FFB151"/></g><path opacity=".5" fill="#DEE1F0" d="M274 240h248v14H274zm0-67h289v36H274zm-93-72h382v50H181zm93 241h248v14H274zm0 102h248v14H274zm0 102h248v14H274z"/><defs><filter id="filter0_d_1_135" x="69" y="94" width="180" height="129.76" filterUnits="userSpaceOnUse" color-interpolation-filters="sRGB"><feFlood flood-opacity="0" result="BackgroundImageFix"/><feColorMatrix in="SourceAlpha" values="0 0 0 0 0 0 0 0 0 0 0 0 0 0 0 0 0 0 127 0" result="hardAlpha"/><feOffset dx="24" dy="24"/><feGaussianBlur stdDeviation="12"/><feComposite in2="hardAlpha" operator="out"/><feColorMatrix values="0 0 0 0 0 0 0 0 0 0 0 0 0 0 0 0 0 0 0.05 0"/><feBlend in2="BackgroundImageFix" result="effect1_dropShadow_1_135"/><feBlend in="SourceGraphic" in2="effect1_dropShadow_1_135" result="shape"/></filter><filter id="filter1_d_1_135" x="440" y="0" width="180" height="129.76" filterUnits="userSpaceOnUse" color-interpolation-filters="sRGB"><feFlood flood-opacity="0" result="BackgroundImageFix"/><feColorMatrix in="SourceAlpha" values="0 0 0 0 0 0 0 0 0 0 0 0 0 0 0 0 0 0 127 0" result="hardAlpha"/><feOffset dx="24" dy="24"/><feGaussianBlur stdDeviation="12"/><feComposite in2="hardAlpha" operator="out"/><feColorMatrix values="0 0 0 0 0 0 0 0 0 0 0 0 0 0 0 0 0 0 0.05 0"/><feBlend in2="BackgroundImageFix" result="effect1_dropShadow_1_135"/><feBlend in="SourceGraphic" in2="effect1_dropShadow_1_135" result="shape"/></filter><filter id="filter2_d_1_135" x="181" y="81" width="450" height="652" filterUnits="userSpaceOnUse" color-interpolation-filters="sRGB"><feFlood flood-opacity="0" result="BackgroundImageFix"/><feColorMatrix in="SourceAlpha" values="0 0 0 0 0 0 0 0 0 0 0 0 0 0 0 0 0 0 127 0" result="hardAlpha"/><feOffset dx="34" dy="34"/><feGaussianBlur stdDeviation="17"/><feComposite in2="hardAlpha" operator="out"/><feColorMatrix values="0 0 0 0 0 0 0 0 0 0 0 0 0 0 0 0 0 0 0.1 0"/><feBlend in2="BackgroundImageFix" result="effect1_dropShadow_1_135"/><feBlend in="SourceGraphic" in2="effect1_dropShadow_1_135" result="shape"/></filter><filter id="filter3_d_1_135" x="0" y="354" width="276" height="189.222" filterUnits="userSpaceOnUse" color-interpolation-filters="sRGB"><feFlood flood-opacity="0" result="BackgroundImageFix"/><feColorMatrix in="SourceAlpha" values="0 0 0 0 0 0 0 0 0 0 0 0 0 0 0 0 0 0 127 0" result="hardAlpha"/><feOffset dx="24" dy="24"/><feGaussianBlur stdDeviation="12"/><feComposite in2="hardAlpha" operator="out"/><feColorMatrix values="0 0 0 0 0 0 0 0 0 0 0 0 0 0 0 0 0 0 0.05 0"/><feBlend in2="BackgroundImageFix" result="effect1_dropShadow_1_135"/><feBlend in="SourceGraphic" in2="effect1_dropShadow_1_135" result="shape"/></filter><filter id="filter4_d_1_135" x="304" y="582" width="276" height="189.222" filterUnits="userSpaceOnUse" color-interpolation-filters="sRGB"><feFlood flood-opacity="0" result="BackgroundImageFix"/><feColorMatrix in="SourceAlpha" values="0 0 0 0 0 0 0 0 0 0 0 0 0 0 0 0 0 0 127 0" result="hardAlpha"/><feOffset dx="24" dy="24"/><feGaussianBlur stdDeviation="12"/><feComposite in2="hardAlpha" operator="out"/><feColorMatrix values="0 0 0 0 0 0 0 0 0 0 0 0 0 0 0 0 0 0 0.05 0"/><feBlend in2="BackgroundImageFix" result="effect1_dropShadow_1_135"/><feBlend in="SourceGraphic" in2="effect1_dropShadow_1_135" result="shape"/></filter></defs></svg>