<svg width="32" height="32" viewBox="0 0 32 32" fill="none" xmlns="http://www.w3.org/2000/svg">
<rect width="32" height="32" rx="6" fill="#E0FDFF"/>
<g clip-path="url(#clip0_94_199)">
<path opacity="0.3" d="M19 9.5C19 8.67157 18.3284 8 17.5 8C16.6716 8 16 8.67157 16 9.5V19.5C16 20.3284 16.6716 21 17.5 21C18.3284 21 19 20.3284 19 19.5V9.5Z" fill="#04A099"/>
<path opacity="0.3" d="M14 14.5C14 13.6716 13.3284 13 12.5 13C11.6716 13 11 13.6716 11 14.5V19.5C11 20.3284 11.6716 21 12.5 21C13.3284 21 14 20.3284 14 19.5V14.5Z" fill="#04A099"/>
<path d="M9 23H24C24.5523 23 25 23.4477 25 24C25 24.5523 24.5523 25 24 25H8C7.44772 25 7 24.5523 7 24V8C7 7.44772 7.44772 7 8 7C8.55228 7 9 7.44772 9 8V23Z" fill="#04A099"/>
<path opacity="0.3" d="M24 16.5C24 15.6716 23.3284 15 22.5 15C21.6716 15 21 15.6716 21 16.5V19.5C21 20.3284 21.6716 21 22.5 21C23.3284 21 24 20.3284 24 19.5V16.5Z" fill="#04A099"/>
</g>
<defs>
<clipPath id="clip0_94_199">
<rect width="24" height="24" fill="white" transform="translate(4 4)"/>
</clipPath>
</defs>
</svg>
