<svg width="24" height="24" viewBox="0 0 24 24" fill="none" xmlns="http://www.w3.org/2000/svg">
<path opacity="0.3" d="M17 8.00011C16.4477 8.00011 16 7.55239 16 7.00011C16 6.44782 16.4477 6.00011 17 6.00011H18C20.2091 6.00011 22 7.79097 22 10.0001V18.0001C22 20.2092 20.2091 22.0001 18 22.0001H6C3.79086 22.0001 2 20.2092 2 18.0001V9.99316C2 7.78403 3.79086 5.99316 6 5.99316H7C7.55229 5.99316 8 6.44088 8 6.99316C8 7.54545 7.55229 7.99316 7 7.99316H6C4.89543 7.99316 4 8.8886 4 9.99316V18.0001C4 19.1047 4.89543 20.0001 6 20.0001H18C19.1046 20.0001 20 19.1047 20 18.0001V10.0001C20 8.89554 19.1046 8.00011 18 8.00011H17Z" fill="#3699FF"/>
<path opacity="0.3" d="M11 3C11 2.44772 11.4477 2 12 2C12.5523 2 13 2.44772 13 3L13 13C13 13.5523 12.5523 14 12 14C11.4477 14 11 13.5523 11 13L11 3Z" fill="#3699FF"/>
<path d="M12 2.41421L14.2929 4.70711C14.6834 5.09763 15.3166 5.09763 15.7071 4.70711C16.0976 4.31658 16.0976 3.68342 15.7071 3.29289L12.7071 0.292893C12.3166 -0.097631 11.6834 -0.097631 11.2929 0.292893L8.29289 3.29289C7.90237 3.68342 7.90237 4.31658 8.29289 4.70711C8.68342 5.09763 9.31658 5.09763 9.70711 4.70711L12 2.41421Z" fill="#3699FF"/>
</svg>
