<svg width="24" height="24" viewBox="0 0 24 24" fill="none" xmlns="http://www.w3.org/2000/svg">
<path fill-rule="evenodd" clip-rule="evenodd" d="M11 3V11C11 11.0862 11.0109 11.1699 11.0314 11.2498C10.4163 11.5909 9.99996 12.2468 9.99996 13C9.99996 14.1046 10.8954 15 12 15C13.1045 15 14 14.1046 14 13C14 12.2468 13.5836 11.5909 12.9685 11.2498C12.989 11.1699 13 11.0862 13 11V3L17.7925 12.5852C17.9241 12.8483 17.9331 13.1559 17.8173 13.4263L15.1298 19.697C15.051 19.8808 14.8703 20 14.6703 20H9.32966C9.12965 20 8.94888 19.8808 8.87009 19.697L6.18266 13.4263C6.06679 13.1559 6.07583 12.8483 6.20738 12.5852L11 3Z" fill="#3699FF"/>
<path opacity="0.3" fill-rule="evenodd" clip-rule="evenodd" d="M10 21H14C14.5523 21 15 21.4477 15 22V23H9V22C9 21.4477 9.44772 21 10 21Z" fill="#3699FF"/>
</svg>
