<svg width="17" height="15" viewBox="0 0 17 15" fill="none" xmlns="http://www.w3.org/2000/svg">
<path d="M2.14258 11.3242C1.42708 11.3242 0.889323 11.1488 0.529297 10.7979C0.173828 10.4424 -0.00390625 9.91146 -0.00390625 9.20508V2.75879C-0.00390625 2.05241 0.173828 1.52376 0.529297 1.17285C0.889323 0.817383 1.42708 0.639648 2.14258 0.639648H11.4805C12.1914 0.639648 12.7269 0.817383 13.0869 1.17285C13.4469 1.52832 13.627 2.05697 13.627 2.75879V4.30371H12.5264V2.82031C12.5264 2.46484 12.4329 2.19596 12.2461 2.01367C12.0592 1.83138 11.7972 1.74023 11.46 1.74023H2.15625C1.81445 1.74023 1.55241 1.83138 1.37012 2.01367C1.18783 2.19596 1.09668 2.46484 1.09668 2.82031V9.15039C1.09668 9.50586 1.18783 9.77474 1.37012 9.95703C1.55241 10.1348 1.81445 10.2236 2.15625 10.2236H3.57129V11.3242H2.14258ZM5.51953 14.4893C4.80404 14.4893 4.26628 14.3115 3.90625 13.9561C3.55078 13.6051 3.37305 13.0765 3.37305 12.3701V5.92383C3.37305 5.21745 3.55078 4.6888 3.90625 4.33789C4.26628 3.98242 4.80404 3.80469 5.51953 3.80469H14.8574C15.5684 3.80469 16.1038 3.98242 16.4639 4.33789C16.8239 4.69336 17.0039 5.22201 17.0039 5.92383V12.3701C17.0039 13.0765 16.8239 13.6051 16.4639 13.9561C16.1038 14.3115 15.5684 14.4893 14.8574 14.4893H5.51953ZM4.47363 7.25684V12.3154C4.47363 12.6709 4.56478 12.9375 4.74707 13.1152C4.92936 13.2975 5.19141 13.3887 5.5332 13.3887H14.8369C15.1742 13.3887 15.4362 13.2975 15.623 13.1152C15.8099 12.9375 15.9033 12.6709 15.9033 12.3154V7.25684H4.47363ZM5.54004 6.14258C5.70866 6.14258 5.85221 6.08105 5.9707 5.95801C6.08919 5.83496 6.14844 5.69368 6.14844 5.53418C6.14844 5.37012 6.08919 5.22656 5.9707 5.10352C5.85221 4.98047 5.70866 4.91895 5.54004 4.91895C5.37142 4.91895 5.22786 4.98047 5.10938 5.10352C4.99089 5.22656 4.93164 5.37012 4.93164 5.53418C4.93164 5.69368 4.99089 5.83496 5.10938 5.95801C5.22786 6.08105 5.37142 6.14258 5.54004 6.14258ZM7.50195 6.14258C7.67057 6.14258 7.81413 6.08105 7.93262 5.95801C8.05111 5.83496 8.11035 5.69368 8.11035 5.53418C8.11035 5.37012 8.05111 5.22656 7.93262 5.10352C7.81413 4.98047 7.67057 4.91895 7.50195 4.91895C7.33333 4.91895 7.18978 4.98047 7.07129 5.10352C6.9528 5.22656 6.89355 5.37012 6.89355 5.53418C6.89355 5.69368 6.9528 5.83496 7.07129 5.95801C7.18978 6.08105 7.33333 6.14258 7.50195 6.14258ZM9.46387 6.14258C9.63249 6.14258 9.77604 6.08105 9.89453 5.95801C10.013 5.83496 10.0723 5.69368 10.0723 5.53418C10.0723 5.37012 10.013 5.22656 9.89453 5.10352C9.77604 4.98047 9.63249 4.91895 9.46387 4.91895C9.29525 4.91895 9.15169 4.98047 9.0332 5.10352C8.91471 5.22656 8.85547 5.37012 8.85547 5.53418C8.85547 5.69368 8.91471 5.83496 9.0332 5.95801C9.15169 6.08105 9.29525 6.14258 9.46387 6.14258Z" fill="#7D7D7D"/>
</svg>
