<svg width="54" height="36" viewBox="0 0 54 36" fill="none" xmlns="http://www.w3.org/2000/svg">
<rect x="0.5" y="0.5" width="53" height="35" rx="3.5" fill="#F8F8F9" stroke="#D8DCEB"/>
<path d="M0 4C0 1.79086 1.79086 0 4 0H50C52.2091 0 54 1.79086 54 4V6H0V4Z" fill="#D8DCEB"/>
<circle cx="4" cy="3" r="1" fill="#FF6161"/>
<circle cx="7" cy="3" r="1" fill="#FFB83C"/>
<circle cx="10" cy="3" r="1" fill="#00C10D"/>
<rect x="9" y="11" width="35" height="4" fill="#BEDBFB"/>
<path d="M14.97 22.24C14.97 22.6467 14.8767 23.02 14.69 23.36C14.5033 23.6933 14.2167 23.9633 13.83 24.17C13.4433 24.3767 12.9633 24.48 12.39 24.48H11.33V27H9.62V19.98H12.39C12.95 19.98 13.4233 20.0767 13.81 20.27C14.1967 20.4633 14.4867 20.73 14.68 21.07C14.8733 21.41 14.97 21.8 14.97 22.24ZM12.26 23.12C12.5867 23.12 12.83 23.0433 12.99 22.89C13.15 22.7367 13.23 22.52 13.23 22.24C13.23 21.96 13.15 21.7433 12.99 21.59C12.83 21.4367 12.5867 21.36 12.26 21.36H11.33V23.12H12.26ZM18.4902 19.98C19.2302 19.98 19.8769 20.1267 20.4302 20.42C20.9836 20.7133 21.4102 21.1267 21.7102 21.66C22.0169 22.1867 22.1702 22.7967 22.1702 23.49C22.1702 24.1767 22.0169 24.7867 21.7102 25.32C21.4102 25.8533 20.9802 26.2667 20.4202 26.56C19.8669 26.8533 19.2236 27 18.4902 27H15.8602V19.98H18.4902ZM18.3802 25.52C19.0269 25.52 19.5302 25.3433 19.8902 24.99C20.2502 24.6367 20.4302 24.1367 20.4302 23.49C20.4302 22.8433 20.2502 22.34 19.8902 21.98C19.5302 21.62 19.0269 21.44 18.3802 21.44H17.5702V25.52H18.3802ZM27.6959 19.98V21.35H24.8359V22.83H26.9759V24.16H24.8359V27H23.1259V19.98H27.6959Z" fill="#3699FF"/>
</svg>
