<svg width="14" height="16" viewBox="0 0 14 16" fill="none" xmlns="http://www.w3.org/2000/svg">
<path d="M4.97656 13.3701C4.84896 13.3701 4.74642 13.3337 4.66895 13.2607C4.59147 13.1878 4.55046 13.0898 4.5459 12.9668L4.34082 5.65918C4.33626 5.54069 4.37272 5.44499 4.4502 5.37207C4.53223 5.2946 4.63704 5.25586 4.76465 5.25586C4.8877 5.25586 4.98796 5.29232 5.06543 5.36523C5.14746 5.43815 5.18848 5.53385 5.18848 5.65234L5.40039 12.9668C5.40039 13.0853 5.36165 13.1833 5.28418 13.2607C5.20671 13.3337 5.10417 13.3701 4.97656 13.3701ZM7 13.3701C6.8724 13.3701 6.76758 13.3337 6.68555 13.2607C6.60352 13.1833 6.5625 13.0853 6.5625 12.9668V5.65918C6.5625 5.54069 6.60352 5.44499 6.68555 5.37207C6.76758 5.2946 6.8724 5.25586 7 5.25586C7.13216 5.25586 7.23926 5.2946 7.32129 5.37207C7.40332 5.44499 7.44434 5.54069 7.44434 5.65918V12.9668C7.44434 13.0853 7.40332 13.1833 7.32129 13.2607C7.23926 13.3337 7.13216 13.3701 7 13.3701ZM9.03027 13.3701C8.89811 13.3701 8.79329 13.3337 8.71582 13.2607C8.63835 13.1833 8.60189 13.0853 8.60645 12.9668L8.81152 5.65918C8.81608 5.53613 8.8571 5.43815 8.93457 5.36523C9.01204 5.29232 9.1123 5.25586 9.23535 5.25586C9.36751 5.25586 9.47233 5.2946 9.5498 5.37207C9.62728 5.44499 9.66374 5.54069 9.65918 5.65918L9.4541 12.9668C9.44954 13.0898 9.40853 13.1878 9.33105 13.2607C9.25358 13.3337 9.15332 13.3701 9.03027 13.3701ZM3.99902 3.47168V1.94043C3.99902 1.44824 4.14941 1.06087 4.4502 0.77832C4.75553 0.491211 5.17025 0.347656 5.69434 0.347656H8.29199C8.81608 0.347656 9.22852 0.491211 9.5293 0.77832C9.83464 1.06087 9.9873 1.44824 9.9873 1.94043V3.47168H8.90039V2.00879C8.90039 1.81738 8.83659 1.66243 8.70898 1.54395C8.58594 1.42546 8.42188 1.36621 8.2168 1.36621H5.76953C5.56445 1.36621 5.39811 1.42546 5.27051 1.54395C5.14746 1.66243 5.08594 1.81738 5.08594 2.00879V3.47168H3.99902ZM0.895508 4.01855C0.758789 4.01855 0.638021 3.96842 0.533203 3.86816C0.432943 3.76335 0.382812 3.6403 0.382812 3.49902C0.382812 3.3623 0.432943 3.24382 0.533203 3.14355C0.638021 3.03874 0.758789 2.98633 0.895508 2.98633H13.1113C13.248 2.98633 13.3665 3.03646 13.4668 3.13672C13.5671 3.23698 13.6172 3.35775 13.6172 3.49902C13.6172 3.6403 13.5671 3.76335 13.4668 3.86816C13.3711 3.96842 13.2526 4.01855 13.1113 4.01855H0.895508ZM3.86914 15.5713C3.37695 15.5713 2.97819 15.4255 2.67285 15.1338C2.37207 14.8467 2.21029 14.457 2.1875 13.9648L1.70215 3.88867H2.77539L3.26074 13.8418C3.26986 14.0423 3.34049 14.2087 3.47266 14.3408C3.60482 14.473 3.76888 14.5391 3.96484 14.5391H10.0283C10.2288 14.5391 10.3952 14.473 10.5273 14.3408C10.6595 14.2132 10.7301 14.0469 10.7393 13.8418L11.1973 3.88867H12.2979L11.8193 13.958C11.7965 14.4502 11.6325 14.8421 11.3271 15.1338C11.0218 15.4255 10.6253 15.5713 10.1377 15.5713H3.86914Z" fill="#FF2D2D"/>
</svg>
