<svg width="32" height="32" viewBox="0 0 32 32" fill="none" xmlns="http://www.w3.org/2000/svg">
<g clip-path="url(#clip0_0_4)">
<path opacity="0.3" fill-rule="evenodd" clip-rule="evenodd" d="M7.5 25H24.5C25.3284 25 26 24.3284 26 23.5V12.5C26 11.6716 25.3284 11 24.5 11H14L11.4393 8.43934C11.158 8.15804 10.7765 8 10.3787 8H7.5C6.67157 8 6 8.67157 6 9.5V23.5C6 24.3284 6.67157 25 7.5 25Z" fill="#3699FF"/>
<path fill-rule="evenodd" clip-rule="evenodd" d="M15 17V15C15 14.4477 15.4477 14 16 14C16.5523 14 17 14.4477 17 15V17H19C19.5523 17 20 17.4477 20 18C20 18.5523 19.5523 19 19 19H17V21C17 21.5523 16.5523 22 16 22C15.4477 22 15 21.5523 15 21V19H13C12.4477 19 12 18.5523 12 18C12 17.4477 12.4477 17 13 17H15Z" fill="#3699FF"/>
</g>
<defs>
<clipPath id="clip0_0_4">
<rect width="24" height="24" fill="white" transform="translate(4 4)"/>
</clipPath>
</defs>
</svg>
