<svg width="13" height="12" viewBox="0 0 13 12" fill="none" xmlns="http://www.w3.org/2000/svg">
<path d="M12.96 6.05762C12.96 6.27181 12.8802 6.45866 12.7207 6.61816L8.20898 11.1162C8.04948 11.2712 7.86947 11.3486 7.66895 11.3486C7.45931 11.3486 7.28385 11.2803 7.14258 11.1436C7.00586 11.0068 6.9375 10.8359 6.9375 10.6309C6.9375 10.526 6.95573 10.4281 6.99219 10.3369C7.0332 10.2458 7.08789 10.166 7.15625 10.0977L8.6875 8.55273L11.2373 6.22852L11.4766 6.66602L9.10449 6.80273H0.798828C0.570964 6.80273 0.386393 6.73438 0.245117 6.59766C0.108398 6.45638 0.0400391 6.27637 0.0400391 6.05762C0.0400391 5.83431 0.108398 5.6543 0.245117 5.51758C0.386393 5.3763 0.570964 5.30566 0.798828 5.30566H9.10449L11.4766 5.44922L11.2373 5.89355L8.6875 3.5625L7.15625 2.01074C7.08789 1.94238 7.0332 1.86491 6.99219 1.77832C6.95573 1.68717 6.9375 1.58691 6.9375 1.47754C6.9375 1.27246 7.00586 1.10156 7.14258 0.964844C7.28385 0.828125 7.45931 0.759766 7.66895 0.759766C7.76921 0.759766 7.86491 0.780273 7.95605 0.821289C8.0472 0.862305 8.13379 0.923828 8.21582 1.00586L12.7207 5.49707C12.8802 5.65658 12.96 5.84342 12.96 6.05762Z" fill="#7D7D7D"/>
</svg>
