<svg width="26" height="26" viewBox="0 0 26 26" fill="none" xmlns="http://www.w3.org/2000/svg">
<path fill-rule="evenodd" clip-rule="evenodd" d="M19.1872 7.87284C19.4801 7.57995 19.4801 7.10508 19.1872 6.81218C18.8943 6.51929 18.4194 6.51929 18.1265 6.81218L13 11.9387L7.87348 6.81218C7.58058 6.51929 7.10571 6.51929 6.81282 6.81218C6.51992 7.10508 6.51992 7.57995 6.81282 7.87284L11.9393 12.9994L6.81282 18.1259C6.51992 18.4188 6.51992 18.8937 6.81282 19.1866C7.10571 19.4794 7.58058 19.4794 7.87348 19.1866L13 14.06L18.1265 19.1866C18.4194 19.4794 18.8943 19.4794 19.1872 19.1866C19.4801 18.8937 19.4801 18.4188 19.1872 18.1259L14.0607 12.9994L19.1872 7.87284Z" fill="#1E1E1E"/>
<path fill-rule="evenodd" clip-rule="evenodd" d="M19.1872 7.87284C19.4801 7.57995 19.4801 7.10508 19.1872 6.81218C18.8943 6.51929 18.4194 6.51929 18.1265 6.81218L13 11.9387L7.87348 6.81218C7.58058 6.51929 7.10571 6.51929 6.81282 6.81218C6.51992 7.10508 6.51992 7.57995 6.81282 7.87284L11.9393 12.9994L6.81282 18.1259C6.51992 18.4188 6.51992 18.8937 6.81282 19.1866C7.10571 19.4794 7.58058 19.4794 7.87348 19.1866L13 14.06L18.1265 19.1866C18.4194 19.4794 18.8943 19.4794 19.1872 19.1866C19.4801 18.8937 19.4801 18.4188 19.1872 18.1259L14.0607 12.9994L19.1872 7.87284Z" fill="black" fill-opacity="0.2"/>
<path fill-rule="evenodd" clip-rule="evenodd" d="M19.1872 7.87284C19.4801 7.57995 19.4801 7.10508 19.1872 6.81218C18.8943 6.51929 18.4194 6.51929 18.1265 6.81218L13 11.9387L7.87348 6.81218C7.58058 6.51929 7.10571 6.51929 6.81282 6.81218C6.51992 7.10508 6.51992 7.57995 6.81282 7.87284L11.9393 12.9994L6.81282 18.1259C6.51992 18.4188 6.51992 18.8937 6.81282 19.1866C7.10571 19.4794 7.58058 19.4794 7.87348 19.1866L13 14.06L18.1265 19.1866C18.4194 19.4794 18.8943 19.4794 19.1872 19.1866C19.4801 18.8937 19.4801 18.4188 19.1872 18.1259L14.0607 12.9994L19.1872 7.87284Z" fill="black" fill-opacity="0.2"/>
</svg>
