<svg width="24" height="24" viewBox="0 0 24 24" fill="none" xmlns="http://www.w3.org/2000/svg">
<mask id="mask0_255_2571" style="mask-type:alpha" maskUnits="userSpaceOnUse" x="0" y="0" width="24" height="24">
<rect width="24" height="24" rx="4" fill="#D8DCEB"/>
</mask>
<g mask="url(#mask0_255_2571)">
<rect width="24" height="24" rx="4" fill="#D8DCEB"/>
<path d="M3 4H24V14H3V4Z" fill="#EEEFF4"/>
<g filter="url(#filter0_d_255_2571)">
<path d="M3 4H18V24H3V4Z" fill="white"/>
</g>
<path fill-rule="evenodd" clip-rule="evenodd" d="M20 8H21V9H20V8ZM22 9H21V10H22V9ZM22 9V8H23V9H22Z" fill="#3699FF"/>
<rect x="6" y="8" width="9" height="2" fill="#D8DCEB"/>
<rect x="6" y="12" width="9" height="2" fill="#D8DCEB"/>
<rect x="6" y="16" width="9" height="2" fill="#D8DCEB"/>
<rect x="6" y="20" width="9" height="2" fill="#D8DCEB"/>
</g>
<defs>
<filter id="filter0_d_255_2571" x="-1" y="2" width="23" height="28" filterUnits="userSpaceOnUse" color-interpolation-filters="sRGB">
<feFlood flood-opacity="0" result="BackgroundImageFix"/>
<feColorMatrix in="SourceAlpha" type="matrix" values="0 0 0 0 0 0 0 0 0 0 0 0 0 0 0 0 0 0 127 0" result="hardAlpha"/>
<feOffset dy="2"/>
<feGaussianBlur stdDeviation="2"/>
<feComposite in2="hardAlpha" operator="out"/>
<feColorMatrix type="matrix" values="0 0 0 0 0 0 0 0 0 0 0 0 0 0 0 0 0 0 0.1 0"/>
<feBlend mode="normal" in2="BackgroundImageFix" result="effect1_dropShadow_255_2571"/>
<feBlend mode="normal" in="SourceGraphic" in2="effect1_dropShadow_255_2571" result="shape"/>
</filter>
</defs>
</svg>
