<svg width="32" height="32" viewBox="0 0 32 32" fill="none" xmlns="http://www.w3.org/2000/svg">
<rect width="32" height="32" rx="4" fill="#DCF0D0"/>
<g clip-path="url(#clip0_94_174)">
<path d="M16.9336 20.0724L23.36 14.9564L23.5182 14.8312C24.1676 14.3169 24.2772 13.3735 23.7629 12.724C23.6917 12.6341 23.6104 12.5526 23.5206 12.4812L16.9337 7.24252C16.3871 6.80783 15.6129 6.80783 15.0663 7.24252L8.47482 12.4848C7.82645 13.0005 7.71886 13.9441 8.23452 14.5925C8.305 14.6811 8.38527 14.7615 8.47382 14.832L8.62999 14.9564L15.0659 20.073C15.6127 20.5077 16.3871 20.5074 16.9336 20.0724Z" fill="#56A627"/>
<path opacity="0.3" fill-rule="evenodd" clip-rule="evenodd" d="M15.0564 22.6709L9.33594 18.1231C8.94555 17.8127 8.37748 17.8776 8.06711 18.268C8.06473 18.271 8.06236 18.274 8.06001 18.277C7.75258 18.674 7.82518 19.245 8.22216 19.5525L8.22649 19.5558L15.0873 24.8033C15.6251 25.2146 16.3718 25.2147 16.9096 24.8035L23.7678 19.56C24.1693 19.253 24.246 18.6786 23.939 18.2771C23.9377 18.2753 23.9363 18.2736 23.935 18.2719C23.6267 17.8745 23.0546 17.8023 22.6572 18.1106C22.6544 18.1129 22.6515 18.1151 22.6486 18.1174L16.9235 22.6707C16.377 23.1053 15.6029 23.1054 15.0564 22.6709Z" fill="#56A627"/>
</g>
<defs>
<clipPath id="clip0_94_174">
<rect width="24" height="24" fill="white" transform="translate(4 4)"/>
</clipPath>
</defs>
</svg>
