<svg width="24" height="24" viewBox="0 0 24 24" fill="none" xmlns="http://www.w3.org/2000/svg">
<path d="M12.9336 16.0724L19.36 10.9564L19.5182 10.8312C20.1676 10.3169 20.2772 9.3735 19.7629 8.72404C19.6917 8.63411 19.6104 8.55264 19.5206 8.48124L12.9337 3.24252C12.3871 2.80783 11.6129 2.80783 11.0663 3.24252L4.47482 8.48483C3.82645 9.00049 3.71886 9.94413 4.23452 10.5925C4.305 10.6811 4.38527 10.7615 4.47382 10.832L4.62999 10.9564L11.0659 16.073C11.6127 16.5077 12.3871 16.5074 12.9336 16.0724Z" fill="#56A627"/>
<path opacity="0.3" fill-rule="evenodd" clip-rule="evenodd" d="M11.0564 18.6709L5.33594 14.1231C4.94555 13.8127 4.37748 13.8776 4.06711 14.268C4.06473 14.271 4.06236 14.274 4.06001 14.277C3.75258 14.674 3.82518 15.245 4.22216 15.5525L4.22649 15.5558L11.0873 20.8033C11.6251 21.2146 12.3718 21.2147 12.9096 20.8035L19.7678 15.56C20.1693 15.253 20.246 14.6786 19.939 14.2771C19.9377 14.2753 19.9363 14.2736 19.935 14.2719C19.6267 13.8745 19.0546 13.8023 18.6572 14.1106C18.6544 14.1129 18.6515 14.1151 18.6486 14.1174L12.9235 18.6707C12.377 19.1053 11.6029 19.1054 11.0564 18.6709Z" fill="#56A627"/>
</svg>
