<svg width="16" height="15" viewBox="0 0 16 15" fill="none" xmlns="http://www.w3.org/2000/svg">
<path d="M8.08203 4.69336C8.51953 4.77083 8.88411 4.88477 9.17578 5.03516C9.46745 5.18099 9.72038 5.36328 9.93457 5.58203C10.4906 6.13346 10.8597 6.74186 11.042 7.40723C11.2243 8.06803 11.222 8.72884 11.0352 9.38965C10.8529 10.0505 10.4883 10.6543 9.94141 11.2012L7.60352 13.5459C7.0612 14.0882 6.45964 14.4505 5.79883 14.6328C5.13802 14.8197 4.47493 14.8219 3.80957 14.6396C3.14876 14.4574 2.54036 14.0882 1.98438 13.5322C1.43294 12.9808 1.06608 12.3747 0.883789 11.7139C0.701497 11.0485 0.701497 10.3854 0.883789 9.72461C1.07064 9.0638 1.43522 8.45996 1.97754 7.91309L3.9873 5.91016C3.95085 6.13346 3.94401 6.36816 3.9668 6.61426C3.99414 6.85579 4.05566 7.08366 4.15137 7.29785L2.81152 8.6377C2.41504 9.03418 2.15072 9.47168 2.01855 9.9502C1.88639 10.4287 1.88639 10.9095 2.01855 11.3926C2.15072 11.8711 2.41504 12.3109 2.81152 12.7119C3.20801 13.1084 3.64551 13.3704 4.12402 13.498C4.6071 13.6302 5.08789 13.6302 5.56641 13.498C6.04492 13.3659 6.48242 13.1016 6.87891 12.7051L9.11426 10.4766C9.51074 10.0801 9.77279 9.64258 9.90039 9.16406C10.0326 8.68555 10.0326 8.20703 9.90039 7.72852C9.76823 7.24544 9.50391 6.80339 9.10742 6.40234C8.88411 6.17904 8.61751 6.0013 8.30762 5.86914C8.00228 5.73698 7.62402 5.65267 7.17285 5.61621L8.08203 4.69336ZM7.91113 10.3262C7.47363 10.2487 7.10905 10.137 6.81738 9.99121C6.52572 9.84082 6.27279 9.65625 6.05859 9.4375C5.5026 8.88607 5.13346 8.27995 4.95117 7.61914C4.76888 6.95378 4.76888 6.29069 4.95117 5.62988C5.13802 4.96908 5.50488 4.36523 6.05176 3.81836L8.38281 1.48047C8.92969 0.933594 9.53353 0.56901 10.1943 0.386719C10.8551 0.19987 11.516 0.197591 12.1768 0.379883C12.8421 0.562174 13.4528 0.931315 14.0088 1.4873C14.5602 2.03874 14.9271 2.64714 15.1094 3.3125C15.2917 3.97331 15.2894 4.63411 15.1025 5.29492C14.9202 5.95573 14.5579 6.55957 14.0156 7.10645L12.0059 9.10938C12.0423 8.88607 12.0469 8.65365 12.0195 8.41211C11.9967 8.17057 11.9375 7.94043 11.8418 7.72168L13.1816 6.38184C13.5781 5.98535 13.8424 5.54785 13.9746 5.06934C14.1068 4.59082 14.1068 4.1123 13.9746 3.63379C13.8424 3.15072 13.5781 2.71094 13.1816 2.31445C12.7806 1.91341 12.3408 1.64909 11.8623 1.52148C11.3838 1.38932 10.9053 1.38932 10.4268 1.52148C9.94824 1.65365 9.50846 1.91797 9.10742 2.31445L6.87891 4.54297C6.48242 4.93945 6.2181 5.37695 6.08594 5.85547C5.95378 6.33398 5.95378 6.81478 6.08594 7.29785C6.2181 7.77637 6.4847 8.21615 6.88574 8.61719C7.10905 8.84049 7.37337 9.01823 7.67871 9.15039C7.98861 9.28255 8.36914 9.36686 8.82031 9.40332L7.91113 10.3262Z" fill="#7D7D7D"/>
</svg>
