<svg width="18" height="10" viewBox="0 0 18 10" fill="none" xmlns="http://www.w3.org/2000/svg">
<path fill-rule="evenodd" clip-rule="evenodd" d="M0 1C0 0.447715 0.447715 0 1 0H17C17.5523 0 18 0.447715 18 1C18 1.55228 17.5523 2 17 2H1C0.447716 2 0 1.55228 0 1ZM0 5C0 4.44772 0.447715 4 1 4H17C17.5523 4 18 4.44772 18 5C18 5.55228 17.5523 6 17 6H1C0.447716 6 0 5.55228 0 5ZM1 8C0.447715 8 0 8.44771 0 9C0 9.55229 0.447716 10 1 10H17C17.5523 10 18 9.55229 18 9C18 8.44771 17.5523 8 17 8H1Z" fill="#7D7D7D"/>
</svg>
