<svg width="24" height="24" viewBox="0 0 24 24" fill="none" xmlns="http://www.w3.org/2000/svg">
<path opacity="0.3" d="M8.29605 4.13789L1.15598 10.6155C0.849203 10.8939 0.826131 11.3682 1.10445 11.675C1.11906 11.6911 1.13436 11.7065 1.15031 11.7213L8.29037 18.3338C8.59428 18.6152 9.06881 18.597 9.35026 18.2931C9.47865 18.1544 9.54998 17.9724 9.54998 17.7835V4.69336C9.54998 4.27915 9.2142 3.94336 8.79998 3.94336C8.61367 3.94336 8.43403 4.0127 8.29605 4.13789Z" fill="#3699FF"/>
<path d="M23.2951 17.7913C23.2951 16.971 23.4709 13.7337 20.9172 11.1653C19.1984 9.43681 16.6262 9.137 13.55 9.00028V4.69336C13.55 4.27915 13.2142 3.94336 12.8 3.94336C12.6137 3.94336 12.434 4.0127 12.296 4.13789L5.15598 10.6155C4.8492 10.8939 4.82613 11.3682 5.10445 11.675C5.11906 11.6911 5.13436 11.7065 5.15031 11.7213L12.2904 18.3338C12.5943 18.6152 13.0688 18.597 13.3503 18.2931C13.4787 18.1544 13.55 17.9724 13.55 17.7835V13.5003C15.5031 13.554 16.8944 13.6782 18.1584 14.0804C19.9784 14.6594 21.385 16.3021 22.378 19.0086C22.4864 19.304 22.7675 19.5003 23.0821 19.5003H23.3C23.3 19.0071 23.2951 18.2259 23.2951 17.7913Z" fill="#3699FF"/>
</svg>
