<svg width="16" height="15" viewBox="0 0 16 15" fill="none" xmlns="http://www.w3.org/2000/svg">
<path d="M2.91406 11.5703C2.19857 11.5703 1.66081 11.3949 1.30078 11.0439C0.945312 10.6885 0.767578 10.1576 0.767578 9.45117V2.5332C0.767578 1.82682 0.945312 1.29818 1.30078 0.947266C1.66081 0.591797 2.19857 0.414062 2.91406 0.414062H9.77734C10.4883 0.414062 11.0215 0.591797 11.377 0.947266C11.737 1.30273 11.917 1.83138 11.917 2.5332V4.0918H10.8164V2.59473C10.8164 2.23926 10.723 1.97038 10.5361 1.78809C10.3538 1.60579 10.0941 1.51465 9.75684 1.51465H2.92773C2.58594 1.51465 2.32389 1.60579 2.1416 1.78809C1.95931 1.97038 1.86816 2.23926 1.86816 2.59473V9.38965C1.86816 9.74512 1.95931 10.014 2.1416 10.1963C2.32389 10.3786 2.58594 10.4697 2.92773 10.4697H4.64355V11.5703H2.91406ZM6.22949 14.7354C5.514 14.7354 4.97624 14.5576 4.61621 14.2021C4.26074 13.8512 4.08301 13.3226 4.08301 12.6162V5.69824C4.08301 4.99186 4.26074 4.46322 4.61621 4.1123C4.97624 3.75684 5.514 3.5791 6.22949 3.5791H13.0928C13.8037 3.5791 14.3369 3.75684 14.6924 4.1123C15.0524 4.46777 15.2324 4.99642 15.2324 5.69824V12.6162C15.2324 13.318 15.0524 13.8467 14.6924 14.2021C14.3369 14.5576 13.8037 14.7354 13.0928 14.7354H6.22949ZM6.24316 13.6348H13.0723C13.4095 13.6348 13.6693 13.5436 13.8516 13.3613C14.0384 13.179 14.1318 12.9102 14.1318 12.5547V5.75977C14.1318 5.4043 14.0384 5.13542 13.8516 4.95312C13.6693 4.77083 13.4095 4.67969 13.0723 4.67969H6.24316C5.90137 4.67969 5.63932 4.77083 5.45703 4.95312C5.27474 5.13542 5.18359 5.4043 5.18359 5.75977V12.5547C5.18359 12.9102 5.27474 13.179 5.45703 13.3613C5.63932 13.5436 5.90137 13.6348 6.24316 13.6348Z" fill="#7D7D7D"/>
</svg>
