<svg width="24" height="24" viewBox="0 0 24 24" fill="none" xmlns="http://www.w3.org/2000/svg">
<path opacity="0.3" d="M5.85714 2H13.7364C14.0911 2 14.4343 2.12568 14.7051 2.35474L19.4687 6.38394C19.8057 6.66895 20 7.08788 20 7.5292V20.0833C20 21.8739 19.9796 22 18.1429 22H5.85714C4.02045 22 4 21.8739 4 20.0833V3.91667C4 2.12612 4.02045 2 5.85714 2Z" fill="#3699FF"/>
<path fill-rule="evenodd" clip-rule="evenodd" d="M8.95118 13.8152H10.9077V15.8229C10.9077 16.0991 11.1315 16.3229 11.4077 16.3229H12.431C12.7071 16.3229 12.931 16.0991 12.931 15.8229V13.8152H14.8874C15.1636 13.8152 15.3874 13.5914 15.3874 13.3152C15.3874 13.1969 15.3455 13.0825 15.269 12.9922L12.3009 9.4865C12.1225 9.27575 11.807 9.24955 11.5962 9.42798C11.5751 9.44584 11.5556 9.46541 11.5377 9.4865L8.56959 12.9922C8.39115 13.2029 8.41735 13.5184 8.6281 13.6968C8.71839 13.7733 8.83287 13.8152 8.95118 13.8152Z" fill="#3699FF"/>
</svg>
