<svg width="54" height="36" viewBox="0 0 54 36" fill="none" xmlns="http://www.w3.org/2000/svg">
<rect x="0.5" y="0.5" width="53" height="35" rx="3.5" fill="#F8F8F9" stroke="#D8DCEB"/>
<path d="M0 4C0 1.79086 1.79086 0 4 0H50C52.2091 0 54 1.79086 54 4V6H0V4Z" fill="#D8DCEB"/>
<circle cx="4" cy="3" r="1" fill="#FF6161"/>
<circle cx="7" cy="3" r="1" fill="#FFB83C"/>
<circle cx="10" cy="3" r="1" fill="#00C10D"/>
<path d="M9.5 16C9.5 14.067 11.067 12.5 13 12.5H53.5V27.5H13C11.067 27.5 9.5 25.933 9.5 24V16Z" fill="white" stroke="#3699FF"/>
<path d="M16.88 18.52C17.216 18.52 17.5147 18.592 17.776 18.736C18.0427 18.88 18.2507 19.0933 18.4 19.376C18.5547 19.6587 18.632 20 18.632 20.4V23H17.728V20.536C17.728 20.1413 17.6293 19.84 17.432 19.632C17.2347 19.4187 16.9653 19.312 16.624 19.312C16.2827 19.312 16.0107 19.4187 15.808 19.632C15.6107 19.84 15.512 20.1413 15.512 20.536V23H14.6V17.08H15.512V19.104C15.6667 18.9173 15.8613 18.7733 16.096 18.672C16.336 18.5707 16.5973 18.52 16.88 18.52ZM20.8593 19.336V21.776C20.8593 21.9413 20.8966 22.0613 20.9713 22.136C21.0513 22.2053 21.1846 22.24 21.3713 22.24H21.9313V23H21.2113C20.8006 23 20.486 22.904 20.2673 22.712C20.0486 22.52 19.9393 22.208 19.9393 21.776V19.336H19.4193V18.592H19.9393V17.496H20.8593V18.592H21.9313V19.336H20.8593ZM23.8359 19.336V21.776C23.8359 21.9413 23.8732 22.0613 23.9479 22.136C24.0279 22.2053 24.1612 22.24 24.3479 22.24H24.9079V23H24.1879C23.7772 23 23.4625 22.904 23.2439 22.712C23.0252 22.52 22.9159 22.208 22.9159 21.776V19.336H22.3959V18.592H22.9159V17.496H23.8359V18.592H24.9079V19.336H23.8359ZM26.6604 19.24C26.8151 19.0373 27.0258 18.8667 27.2924 18.728C27.5591 18.5893 27.8604 18.52 28.1964 18.52C28.5804 18.52 28.9298 18.616 29.2444 18.808C29.5644 18.9947 29.8151 19.2587 29.9964 19.6C30.1778 19.9413 30.2684 20.3333 30.2684 20.776C30.2684 21.2187 30.1778 21.616 29.9964 21.968C29.8151 22.3147 29.5644 22.5867 29.2444 22.784C28.9298 22.976 28.5804 23.072 28.1964 23.072C27.8604 23.072 27.5618 23.0053 27.3004 22.872C27.0391 22.7333 26.8258 22.5627 26.6604 22.36V25.096H25.7484V18.592H26.6604V19.24ZM29.3404 20.776C29.3404 20.472 29.2764 20.2107 29.1484 19.992C29.0258 19.768 28.8604 19.6 28.6524 19.488C28.4498 19.3707 28.2311 19.312 27.9964 19.312C27.7671 19.312 27.5484 19.3707 27.3404 19.488C27.1378 19.6053 26.9724 19.776 26.8444 20C26.7218 20.224 26.6604 20.488 26.6604 20.792C26.6604 21.096 26.7218 21.3627 26.8444 21.592C26.9724 21.816 27.1378 21.9867 27.3404 22.104C27.5484 22.2213 27.7671 22.28 27.9964 22.28C28.2311 22.28 28.4498 22.2213 28.6524 22.104C28.8604 21.9813 29.0258 21.8053 29.1484 21.576C29.2764 21.3467 29.3404 21.08 29.3404 20.776ZM32.7703 23.072C32.4236 23.072 32.1116 23.0107 31.8343 22.888C31.5623 22.76 31.3463 22.5893 31.1863 22.376C31.0263 22.1573 30.941 21.9147 30.9303 21.648H31.8743C31.8903 21.8347 31.9783 21.992 32.1383 22.12C32.3036 22.2427 32.509 22.304 32.7543 22.304C33.0103 22.304 33.2076 22.256 33.3463 22.16C33.4903 22.0587 33.5623 21.9307 33.5623 21.776C33.5623 21.6107 33.4823 21.488 33.3223 21.408C33.1676 21.328 32.9196 21.24 32.5783 21.144C32.2476 21.0533 31.9783 20.9653 31.7703 20.88C31.5623 20.7947 31.381 20.664 31.2263 20.488C31.077 20.312 31.0023 20.08 31.0023 19.792C31.0023 19.5573 31.0716 19.344 31.2103 19.152C31.349 18.9547 31.5463 18.8 31.8023 18.688C32.0636 18.576 32.3623 18.52 32.6983 18.52C33.1996 18.52 33.6023 18.648 33.9063 18.904C34.2156 19.1547 34.381 19.4987 34.4023 19.936H33.4903C33.4743 19.7387 33.3943 19.5813 33.2503 19.464C33.1063 19.3467 32.9116 19.288 32.6663 19.288C32.4263 19.288 32.2423 19.3333 32.1143 19.424C31.9863 19.5147 31.9223 19.6347 31.9223 19.784C31.9223 19.9013 31.965 20 32.0503 20.08C32.1356 20.16 32.2396 20.224 32.3623 20.272C32.485 20.3147 32.6663 20.3707 32.9063 20.44C33.2263 20.5253 33.4876 20.6133 33.6903 20.704C33.8983 20.7893 34.077 20.9173 34.2263 21.088C34.3756 21.2587 34.453 21.4853 34.4583 21.768C34.4583 22.0187 34.389 22.2427 34.2503 22.44C34.1116 22.6373 33.9143 22.792 33.6583 22.904C33.4076 23.016 33.1116 23.072 32.7703 23.072ZM35.8118 23.056C35.6464 23.056 35.5078 23 35.3958 22.888C35.2838 22.776 35.2278 22.6373 35.2278 22.472C35.2278 22.3067 35.2838 22.168 35.3958 22.056C35.5078 21.944 35.6464 21.888 35.8118 21.888C35.9718 21.888 36.1078 21.944 36.2198 22.056C36.3318 22.168 36.3878 22.3067 36.3878 22.472C36.3878 22.6373 36.3318 22.776 36.2198 22.888C36.1078 23 35.9718 23.056 35.8118 23.056ZM35.8118 19.696C35.6464 19.696 35.5078 19.64 35.3958 19.528C35.2838 19.416 35.2278 19.2773 35.2278 19.112C35.2278 18.9467 35.2838 18.808 35.3958 18.696C35.5078 18.584 35.6464 18.528 35.8118 18.528C35.9718 18.528 36.1078 18.584 36.2198 18.696C36.3318 18.808 36.3878 18.9467 36.3878 19.112C36.3878 19.2773 36.3318 19.416 36.2198 19.528C36.1078 19.64 35.9718 19.696 35.8118 19.696ZM40.3647 15.448L38.1887 24.4H37.2927L39.4607 15.448H40.3647ZM44.4741 15.448L42.2981 24.4H41.4021L43.5701 15.448H44.4741Z" fill="#AAB1CD"/>
</svg>
