<svg width="32" height="32" viewBox="0 0 32 32" fill="none" xmlns="http://www.w3.org/2000/svg">
<rect width="32" height="32" rx="6" fill="#F6E8FF"/>
<g clip-path="url(#clip0_94_191)">
<path opacity="0.3" d="M22 18C20.3431 18 19 16.6569 19 15C19 13.3431 20.3431 12 22 12C23.6569 12 25 13.3431 25 15C25 16.6569 23.6569 18 22 18ZM13 15C10.7909 15 9 13.2091 9 11C9 8.79086 10.7909 7 13 7C15.2091 7 17 8.79086 17 11C17 13.2091 15.2091 15 13 15Z" fill="#8627C2"/>
<path d="M21.6012 19.0006C25.0077 19.0379 27.7892 20.7601 27.9985 24.4C28.0069 24.5466 27.9985 25 27.4559 25H23.6C23.6 22.7491 22.8563 20.6718 21.6012 19.0006ZM4.00065 24.1992C4.38826 19.4265 8.26191 17 12.9833 17C17.7712 17 21.7049 19.2932 21.9979 24.2C22.0096 24.3955 21.9979 25 21.2467 25C17.5411 25 12.0347 25 4.7275 25C4.47671 25 3.97954 24.4592 4.00065 24.1992Z" fill="#8627C2"/>
</g>
<defs>
<clipPath id="clip0_94_191">
<rect width="24" height="24" fill="white" transform="translate(4 4)"/>
</clipPath>
</defs>
</svg>
