<svg width="38" height="38" viewBox="0 0 38 38" fill="none" xmlns="http://www.w3.org/2000/svg">
<rect width="38" height="38" rx="19" fill="#E1F0FF"/>
<path opacity="0.3" d="M19 18C16.7909 18 15 16.2091 15 14C15 11.7909 16.7909 10 19 10C21.2091 10 23 11.7909 23 14C23 16.2091 21.2091 18 19 18Z" fill="#3699FF"/>
<path d="M10.0007 27.1992C10.3883 22.4265 14.2619 20 18.9833 20C23.7712 20 27.7049 22.2932 27.9979 27.2C28.0096 27.3955 27.9979 28 27.2467 28C23.5411 28 18.0347 28 10.7275 28C10.4767 28 9.97954 27.4592 10.0007 27.1992Z" fill="#3699FF"/>
</svg>
