<svg width="32" height="32" viewBox="0 0 32 32" fill="none" xmlns="http://www.w3.org/2000/svg">
<rect width="32" height="32" rx="6" fill="#E1F1FF"/>
<g clip-path="url(#clip0_94_183)">
<path fill-rule="evenodd" clip-rule="evenodd" d="M7 8H24C24.5523 8 25 8.44772 25 9V11C25 11.5523 24.5523 12 24 12H7C6.44772 12 6 11.5523 6 11V9C6 8.44772 6.44772 8 7 8ZM7 14H17C17.5523 14 18 14.4477 18 15V17C18 17.5523 17.5523 18 17 18H7C6.44772 18 6 17.5523 6 17V15C6 14.4477 6.44772 14 7 14ZM7 20H17C17.5523 20 18 20.4477 18 21V23C18 23.5523 17.5523 24 17 24H7C6.44772 24 6 23.5523 6 23V21C6 20.4477 6.44772 20 7 20Z" fill="#3699FF"/>
<path opacity="0.3" d="M24 14H21C20.4477 14 20 14.4477 20 15V23C20 23.5523 20.4477 24 21 24H24C24.5523 24 25 23.5523 25 23V15C25 14.4477 24.5523 14 24 14Z" fill="#3699FF"/>
</g>
<defs>
<clipPath id="clip0_94_183">
<rect width="24" height="24" fill="white" transform="translate(4 4)"/>
</clipPath>
</defs>
</svg>
